<svg xmlns="http://www.w3.org/2000/svg" xmlns:xlink="http://www.w3.org/1999/xlink" width="500" zoomAndPan="magnify"
     viewBox="0 0 375 374.999991" height="500" preserveAspectRatio="xMidYMid meet" version="1.0">
    <defs>
        <clipPath id="30fadd738f">
            <path d="M 77.636719 58.742188 L 283 58.742188 L 283 316.515625 L 77.636719 316.515625 Z M 77.636719 58.742188 "
                  clip-rule="nonzero"/>
        </clipPath>
        <clipPath id="4f08082886">
            <path d="M 92.074219 251.820312 L 215.578125 251.820312 L 215.578125 316.515625 L 92.074219 316.515625 Z M 92.074219 251.820312 "
                  clip-rule="nonzero"/>
        </clipPath>
    </defs>
    <path fill="#3d2f3b"
          d="M 254.046875 101.125 C 253.867188 99.644531 253.628906 98.175781 253.347656 96.714844 C 253.585938 96.496094 253.839844 96.285156 254.070312 96.054688 C 254.460938 95.671875 253.863281 95.078125 253.476562 95.457031 C 253.371094 95.558594 253.261719 95.65625 253.15625 95.757812 C 252.839844 94.25 252.472656 92.75 252.046875 91.265625 C 251.898438 90.742188 251.085938 90.964844 251.234375 91.488281 C 251.703125 93.128906 252.089844 94.777344 252.414062 96.433594 C 247.902344 100.355469 242.191406 102.320312 236.496094 103.960938 C 230.855469 105.582031 225.261719 107.160156 219.871094 109.515625 C 209.371094 114.109375 199.691406 120.777344 191.921875 129.230469 C 184.398438 137.417969 178.71875 147.332031 176.132812 158.1875 C 174.429688 165.351562 174 172.75 173.96875 180.09375 C 173.941406 187.078125 174.238281 194.078125 175.167969 201.003906 C 176.878906 213.761719 180.875 226.445312 188.921875 236.664062 C 195.992188 245.652344 206.074219 252.734375 217.570312 254.347656 C 220.277344 254.726562 223.074219 254.746094 225.570312 253.496094 C 228.070312 252.242188 229.929688 250.035156 231.585938 247.847656 C 235.476562 242.71875 238.300781 236.859375 240.296875 230.75 C 244.628906 217.488281 245.011719 203.433594 245.277344 189.609375 C 245.429688 181.796875 245.558594 173.96875 246.386719 166.191406 C 247.183594 158.675781 248.636719 151.25 250.082031 143.835938 C 252.816406 129.832031 255.769531 115.449219 254.046875 101.125 "
          fill-opacity="1" fill-rule="nonzero"/>
    <path fill="#3d2f3b"
          d="M 286.382812 138.070312 C 282.5625 137.234375 278.566406 137.394531 274.679688 137.34375 C 270.957031 137.292969 267.234375 137.242188 263.511719 137.191406 C 262.308594 136.523438 261.109375 135.851562 259.917969 135.171875 C 259.449219 134.90625 258.976562 135.601562 259.445312 135.871094 C 260.214844 136.3125 260.992188 136.734375 261.761719 137.167969 C 261.585938 137.167969 261.410156 137.164062 261.230469 137.164062 C 260.691406 137.15625 260.625 137.996094 261.167969 138.003906 C 261.871094 138.011719 262.578125 138.015625 263.285156 138.023438 C 269.164062 141.289062 275.128906 144.398438 281.191406 147.320312 C 283.085938 148.234375 284.992188 149.132812 286.902344 150.011719 C 288.472656 150.734375 290.074219 151.652344 291.769531 152.023438 C 294.027344 152.519531 295.925781 151.648438 296.347656 149.25 C 297.386719 143.347656 291.367188 139.164062 286.382812 138.070312 "
          fill-opacity="1" fill-rule="nonzero"/>
    <path fill="#f7a567"
          d="M 250.621094 133.261719 C 250.582031 133.445312 250.542969 133.625 250.507812 133.804688 C 240.484375 127.132812 230.410156 120.546875 220.273438 114.050781 C 215.640625 111.082031 211.089844 108.320312 205.589844 107.363281 C 200.449219 106.472656 195.171875 106.863281 190.050781 107.679688 C 185.320312 108.433594 180.425781 109.332031 176.125 111.535156 C 171.863281 113.722656 168.84375 117.285156 166.636719 121.480469 C 161.953125 130.386719 159.53125 140.75 158.695312 150.726562 C 157.824219 161.144531 158.847656 171.726562 161.761719 181.773438 C 163.164062 186.605469 164.894531 191.554688 167.464844 195.90625 C 169.945312 200.113281 173.707031 203.230469 177.671875 205.984375 C 182.210938 209.136719 187.121094 211.710938 192.171875 213.925781 C 196.8125 215.960938 201.796875 217.96875 206.96875 217.257812 C 216.199219 215.984375 222.554688 207.671875 227.308594 200.398438 C 240.433594 180.316406 246.574219 156.679688 251.441406 133.457031 C 251.554688 132.921875 250.734375 132.730469 250.621094 133.261719 "
          fill-opacity="1" fill-rule="nonzero"/>
    <path fill="#d36c44"
          d="M 226.539062 152.796875 C 225.964844 149.25 225.007812 145.796875 223.75 142.4375 C 223.5625 141.933594 222.746094 142.148438 222.9375 142.660156 C 223.925781 145.300781 224.734375 147.996094 225.308594 150.753906 C 225.90625 153.632812 226.835938 157.304688 226.058594 160.226562 C 225.339844 162.925781 222.796875 164.585938 220.550781 165.945312 C 218.03125 167.472656 215.472656 168.933594 212.929688 170.425781 C 212.464844 170.703125 212.886719 171.429688 213.355469 171.15625 C 216.417969 169.355469 219.617188 167.6875 222.546875 165.679688 C 224.269531 164.5 225.957031 163.039062 226.691406 161.019531 C 227.617188 158.464844 226.960938 155.398438 226.539062 152.796875 "
          fill-opacity="1" fill-rule="nonzero"/>
    <path fill="#d36c44"
          d="M 214.003906 163.804688 C 211.761719 163.679688 209.621094 164.21875 207.699219 165.375 C 207.234375 165.652344 207.65625 166.382812 208.125 166.101562 C 209.933594 165.011719 211.894531 164.53125 214.003906 164.644531 C 214.542969 164.675781 214.542969 163.832031 214.003906 163.804688 "
          fill-opacity="1" fill-rule="nonzero"/>
    <path fill="#d36c44"
          d="M 215.902344 181.257812 C 215.226562 179.121094 213.292969 179.488281 211.519531 179.398438 C 211.914062 176.617188 208.917969 175.351562 206.445312 175.625 C 204.722656 175.816406 203.027344 176.378906 201.453125 177.09375 C 200.148438 177.683594 197.867188 178.601562 197.179688 179.945312 C 197.109375 180.085938 197.125 180.257812 197.203125 180.390625 C 197.234375 180.464844 197.285156 180.535156 197.375 180.585938 C 200.34375 182.226562 203.433594 183.617188 206.652344 184.683594 C 208.9375 185.445312 211.675781 186.410156 213.996094 185.222656 C 215.449219 184.480469 216.417969 182.898438 215.902344 181.257812 "
          fill-opacity="1" fill-rule="nonzero"/>
    <path fill="#d36c44"
          d="M 209.253906 194.925781 C 205.773438 194.347656 202.59375 193.058594 199.695312 191.042969 C 199.25 190.734375 198.828125 191.464844 199.269531 191.773438 C 202.222656 193.820312 205.488281 195.152344 209.027344 195.738281 C 209.558594 195.828125 209.789062 195.015625 209.253906 194.925781 "
          fill-opacity="1" fill-rule="nonzero"/>
    <path fill="#3d2f3b"
          d="M 210.839844 143.519531 C 210.132812 147.300781 207.675781 150.019531 205.351562 149.582031 C 203.027344 149.148438 201.714844 145.726562 202.421875 141.945312 C 203.125 138.160156 205.582031 135.445312 207.910156 135.878906 C 210.234375 136.3125 211.546875 139.734375 210.839844 143.519531 "
          fill-opacity="1" fill-rule="nonzero"/>
    <path fill="#ffffff"
          d="M 241.332031 162.550781 C 238.253906 160.609375 235.015625 158.917969 231.667969 157.492188 C 224.285156 154.347656 216.359375 152.496094 208.34375 152.085938 C 199.703125 151.644531 190.933594 152.570312 182.285156 153.160156 C 182.285156 153.078125 182.292969 153 182.289062 152.917969 C 182.285156 152.375 181.445312 152.375 181.449219 152.917969 C 181.449219 153.015625 181.441406 153.117188 181.441406 153.21875 C 181 153.246094 180.554688 153.28125 180.109375 153.304688 C 179.570312 153.339844 179.566406 154.183594 180.109375 154.148438 C 180.546875 154.125 180.988281 154.09375 181.425781 154.066406 C 181.332031 162.074219 179.59375 169.957031 179.515625 177.972656 C 179.4375 185.550781 180.492188 193.371094 183.101562 200.511719 C 185.308594 206.542969 188.867188 212.148438 194.234375 215.816406 C 199.46875 219.390625 205.917969 220.652344 211.988281 218.625 C 218.109375 216.578125 223.082031 211.980469 227.042969 207.03125 C 231.640625 201.289062 235.257812 194.839844 238.261719 188.140625 C 239.734375 184.863281 241.0625 181.523438 242.304688 178.152344 C 242.941406 176.425781 243.558594 174.6875 244.15625 172.949219 C 244.75 171.226562 245.667969 169.328125 245.886719 167.515625 C 246.191406 164.972656 243.109375 163.675781 241.332031 162.550781 "
          fill-opacity="1" fill-rule="nonzero"/>
    <path fill="#3d2f3b"
          d="M 237.097656 147.523438 C 236.390625 151.308594 233.933594 154.023438 231.609375 153.589844 C 229.285156 153.152344 227.972656 149.734375 228.679688 145.949219 C 229.386719 142.164062 231.84375 139.449219 234.167969 139.882812 C 236.492188 140.320312 237.804688 143.738281 237.097656 147.523438 "
          fill-opacity="1" fill-rule="nonzero"/>
    <path fill="#bf724b"
          d="M 284.40625 134.78125 C 277.640625 131.03125 257.332031 120.144531 254.257812 117.925781 C 251.8125 116.164062 249.488281 113.820312 246.367188 113.441406 C 242.84375 113.015625 238.921875 114.058594 235.480469 114.710938 C 231.484375 115.472656 227.527344 116.433594 223.628906 117.589844 C 215.898438 119.882812 208.4375 122.96875 201.3125 126.726562 C 201.695312 127.589844 201.980469 128.507812 202.203125 129.453125 C 213.488281 134.617188 225 139.277344 236.722656 143.359375 C 242.738281 145.457031 248.742188 147.417969 255.15625 147.710938 C 261.6875 148.011719 268.1875 147.027344 274.644531 146.203125 C 278.535156 145.707031 282.445312 145.234375 286.367188 145.15625 C 289.6875 145.09375 293.292969 145.386719 295.710938 147.933594 C 295.941406 148.175781 296.453125 148.070312 296.445312 147.6875 C 296.363281 141.078125 289.425781 137.5625 284.40625 134.78125 "
          fill-opacity="1" fill-rule="nonzero"/>
    <path fill="#bf724b"
          d="M 258.136719 124.734375 C 257.398438 127.542969 256.515625 130.3125 255.558594 133.054688 C 255.03125 134.550781 254.484375 136.039062 253.921875 137.523438 C 253.640625 138.257812 253.382812 139.015625 253.066406 139.738281 C 252.375 141.316406 251.121094 141.226562 249.628906 141.035156 C 246.359375 140.609375 243.019531 139.445312 239.808594 138.671875 C 236.535156 137.882812 233.261719 137.097656 229.984375 136.308594 C 223.4375 134.734375 216.890625 133.160156 210.34375 131.585938 C 195.78125 128.082031 181.222656 124.582031 166.660156 121.082031 C 173.035156 110.136719 180.585938 99.902344 189.230469 90.644531 C 193.507812 86.070312 198.035156 81.726562 202.792969 77.652344 C 207.089844 73.972656 211.75 70.605469 215.121094 66.011719 C 219.984375 66.984375 224.671875 68.808594 229.308594 70.546875 C 234.546875 72.503906 239.773438 74.644531 244.496094 77.679688 C 254.492188 84.105469 259.757812 94.550781 260.363281 106.304688 C 260.679688 112.519531 259.722656 118.738281 258.136719 124.734375 "
          fill-opacity="1" fill-rule="nonzero"/>
    <g clip-path="url(#30fadd738f)">
        <path fill="#3d2f3b"
              d="M 268.058594 291.808594 C 261.570312 282.210938 254.175781 273.363281 245.851562 265.3125 C 239.960938 259.609375 233.742188 254.28125 227.40625 249.085938 C 224.953125 242.769531 220.65625 238.113281 215.070312 234.210938 C 208.652344 229.734375 202.433594 225.492188 197.210938 219.578125 C 192.507812 214.277344 188.648438 208.230469 185.75 201.761719 C 185.007812 198.980469 184.453125 196.152344 184.066406 193.304688 C 181.613281 175.339844 184.714844 156.628906 188.136719 138.996094 C 191.726562 120.492188 197.65625 101.984375 209.847656 87.269531 C 212.621094 83.929688 215.695312 80.824219 219.046875 78.074219 C 220.582031 76.816406 222.175781 75.632812 223.824219 74.523438 C 224.726562 73.925781 225.644531 73.355469 226.582031 72.796875 C 227.851562 72.046875 230.128906 71.445312 229.09375 69.253906 C 228.039062 67.019531 223.976562 65.804688 221.894531 64.957031 C 219.65625 64.035156 217.363281 63.25 215.039062 62.578125 C 210.160156 61.175781 205.15625 60.273438 200.117188 59.707031 C 190.308594 58.605469 180.417969 58.699219 170.570312 58.796875 C 160.5 58.910156 150.152344 59.167969 140.574219 62.617188 C 123.957031 68.613281 113.867188 84.214844 108.878906 100.472656 C 102.886719 120.046875 104.234375 140.789062 102.625 160.960938 C 102.214844 166.140625 101.597656 171.300781 100.65625 176.402344 C 99.761719 181.285156 98.605469 186.136719 98.261719 191.09375 C 97.90625 196.085938 98.507812 201.054688 101.09375 205.414062 C 102.144531 207.191406 103.375 208.863281 103.679688 210.960938 C 103.972656 213.027344 103.382812 215.09375 102.601562 216.992188 C 98.851562 226.046875 91.910156 233.417969 87.394531 242.070312 C 82.640625 251.167969 79.878906 261.214844 78.578125 271.375 C 77.257812 281.746094 77.449219 292.246094 78.402344 302.644531 C 78.832031 307.28125 79.414062 311.902344 80.078125 316.515625 L 282.921875 316.515625 C 278.269531 308.101562 273.445312 299.777344 268.058594 291.808594 "
              fill-opacity="1" fill-rule="nonzero"/>
    </g>
    <path fill="#853f1c"
          d="M 257.042969 119.457031 C 246.910156 117.847656 236.496094 117.714844 226.292969 118.71875 C 216.851562 119.652344 207.550781 121.847656 199.019531 126.078125 C 198.53125 126.320312 198.957031 127.046875 199.441406 126.808594 C 208.0625 122.53125 217.496094 120.371094 227.035156 119.492188 C 236.925781 118.585938 247.003906 118.710938 256.820312 120.269531 C 257.351562 120.355469 257.578125 119.542969 257.042969 119.457031 "
          fill-opacity="1" fill-rule="nonzero"/>
    <path fill="#806573"
          d="M 224.9375 246.949219 C 224.300781 243.808594 223.605469 240.488281 221.523438 237.945312 C 219.253906 235.171875 215.511719 233.75 212.511719 231.929688 C 205.492188 227.675781 198.9375 222.558594 194.152344 215.808594 C 193.84375 215.371094 193.113281 215.789062 193.425781 216.234375 C 197.605469 222.132812 203.097656 226.835938 209.109375 230.78125 C 212.183594 232.800781 215.558594 234.375 218.582031 236.449219 C 222.261719 238.972656 223.289062 243.03125 224.121094 247.171875 C 224.230469 247.703125 225.042969 247.480469 224.9375 246.949219 "
          fill-opacity="1" fill-rule="nonzero"/>
    <path fill="#806573"
          d="M 188.332031 72.667969 C 188.601562 72.195312 187.871094 71.769531 187.605469 72.242188 C 174.765625 94.953125 169.785156 121.785156 173.324219 147.621094 C 174.359375 155.179688 176.140625 162.609375 178.617188 169.824219 C 178.792969 170.332031 179.609375 170.113281 179.429688 169.597656 C 170.96875 144.988281 170.992188 117.765625 179.230469 93.097656 C 181.597656 86.007812 184.65625 79.171875 188.332031 72.667969 "
          fill-opacity="1" fill-rule="nonzero"/>
    <path fill="#806573"
          d="M 212.882812 246.601562 C 183.753906 240.835938 155.164062 226.140625 140.214844 199.417969 C 136.300781 192.421875 133.539062 184.851562 132.144531 176.953125 C 132.050781 176.417969 131.238281 176.644531 131.332031 177.175781 C 136.574219 206.8125 160.109375 228.898438 187.070312 239.882812 C 195.324219 243.25 203.921875 245.683594 212.660156 247.414062 C 213.1875 247.519531 213.414062 246.703125 212.882812 246.601562 "
          fill-opacity="1" fill-rule="nonzero"/>
    <g clip-path="url(#4f08082886)">
        <path fill="#806573"
              d="M 215.46875 316.515625 L 214.363281 316.515625 C 211.53125 312.390625 208.574219 308.351562 205.492188 304.40625 C 196.054688 292.320312 185.523438 280.828125 173.804688 270.917969 C 162.261719 261.152344 148.460938 253.050781 132.972656 252.671875 C 125.644531 252.492188 118.203125 254.011719 111.84375 257.753906 C 105.550781 261.464844 100.804688 267.269531 97.722656 273.84375 C 91.421875 287.289062 92.4375 302.28125 95.261719 316.515625 L 94.410156 316.515625 C 91.328125 300.730469 90.484375 283.890625 98.996094 269.636719 C 106.59375 256.910156 120.4375 250.964844 134.960938 251.921875 C 150.304688 252.921875 163.8125 261.222656 175.21875 271.019531 C 190.546875 284.183594 204.042969 299.667969 215.46875 316.515625 "
              fill-opacity="1" fill-rule="nonzero"/>
    </g>
    <path fill="#cfb4a9"
          d="M 238.75 179.105469 C 235.5625 176.476562 232.339844 173.800781 228.65625 171.886719 C 224.972656 169.96875 220.957031 169.082031 216.851562 168.644531 C 207.152344 167.609375 197.273438 167.507812 187.53125 167.5 C 186.992188 167.5 186.988281 168.34375 187.53125 168.34375 C 196.535156 168.351562 205.566406 168.578125 214.542969 169.277344 C 219.027344 169.628906 223.507812 170.300781 227.589844 172.289062 C 231.476562 174.179688 234.839844 176.964844 238.152344 179.703125 C 238.570312 180.042969 239.167969 179.449219 238.75 179.105469 "
          fill-opacity="1" fill-rule="nonzero"/>
    <path fill="#cfb4a9"
          d="M 230.289062 190.058594 C 223.546875 189.871094 216.816406 189.359375 210.128906 188.480469 C 203.546875 187.617188 197.011719 186.183594 190.339844 186.386719 C 189.800781 186.40625 189.796875 187.25 190.339844 187.230469 C 197.007812 187.027344 203.546875 188.460938 210.128906 189.324219 C 216.816406 190.199219 223.546875 190.714844 230.289062 190.902344 C 230.832031 190.917969 230.832031 190.074219 230.289062 190.058594 "
          fill-opacity="1" fill-rule="nonzero"/>
    <path fill="#cfb4a9"
          d="M 220.871094 205.699219 C 213.382812 207.734375 205.65625 206.980469 198.050781 206.164062 C 197.511719 206.105469 197.515625 206.949219 198.050781 207.007812 C 205.738281 207.832031 213.53125 208.566406 221.09375 206.515625 C 221.617188 206.371094 221.394531 205.558594 220.871094 205.699219 "
          fill-opacity="1" fill-rule="nonzero"/>
    <path fill="#806573"
          d="M 172.910156 240.03125 C 150.574219 234.835938 129.183594 226.085938 109.605469 214.132812 C 109.140625 213.847656 108.71875 214.578125 109.179688 214.859375 C 128.816406 226.847656 150.28125 235.632812 172.6875 240.84375 C 173.214844 240.964844 173.4375 240.152344 172.910156 240.03125 "
          fill-opacity="1" fill-rule="nonzero"/>
</svg>